<svg xmlns="http://www.w3.org/2000/svg" width="1024" height="1024" viewBox="0 0 1024 1024">
  <defs>
    <radialGradient id="mo" cx="38%" cy="34%" r="80%"><stop offset="0%" stop-color="#c9d2cc"/><stop offset="60%" stop-color="#8f9a94"/><stop offset="100%" stop-color="#5a645f"/></radialGradient>
    <clipPath id="mg"><circle cx="512" cy="512" r="390"/></clipPath>
  </defs>
  <circle cx="512" cy="512" r="390" fill="url(#mo)"/>
  <g clip-path="url(#mg)">
    <circle cx="769" cy="460" r="12" fill="#6d7671" opacity=".45"/>
    <circle cx="768" cy="458" r="10" fill="#9aa39d" opacity=".5"/>
    <circle cx="512" cy="512" r="45" fill="#6d7671" opacity=".45"/>
    <circle cx="506" cy="506" r="36" fill="#9aa39d" opacity=".5"/>
    <circle cx="819" cy="536" r="53" fill="#6d7671" opacity=".45"/>
    <circle cx="812" cy="528" r="42" fill="#9aa39d" opacity=".5"/>
    <circle cx="326" cy="471" r="33" fill="#6d7671" opacity=".45"/>
    <circle cx="322" cy="467" r="26" fill="#9aa39d" opacity=".5"/>
    <circle cx="390" cy="571" r="57" fill="#6d7671" opacity=".45"/>
    <circle cx="382" cy="563" r="46" fill="#9aa39d" opacity=".5"/>
    <circle cx="566" cy="511" r="24" fill="#6d7671" opacity=".45"/>
    <circle cx="562" cy="507" r="19" fill="#9aa39d" opacity=".5"/>
    <circle cx="475" cy="245" r="18" fill="#6d7671" opacity=".45"/>
    <circle cx="472" cy="243" r="15" fill="#9aa39d" opacity=".5"/>
    <circle cx="692" cy="532" r="47" fill="#6d7671" opacity=".45"/>
    <circle cx="685" cy="525" r="37" fill="#9aa39d" opacity=".5"/>
    <circle cx="324" cy="724" r="17" fill="#6d7671" opacity=".45"/>
    <circle cx="321" cy="722" r="13" fill="#9aa39d" opacity=".5"/>
    <circle cx="601" cy="531" r="33" fill="#6d7671" opacity=".45"/>
    <circle cx="597" cy="526" r="27" fill="#9aa39d" opacity=".5"/>
    <circle cx="262" cy="681" r="40" fill="#6d7671" opacity=".45"/>
    <circle cx="256" cy="675" r="32" fill="#9aa39d" opacity=".5"/>
    <circle cx="770" cy="471" r="27" fill="#6d7671" opacity=".45"/>
    <circle cx="766" cy="467" r="22" fill="#9aa39d" opacity=".5"/>
    <circle cx="645" cy="579" r="46" fill="#6d7671" opacity=".45"/>
    <circle cx="638" cy="573" r="37" fill="#9aa39d" opacity=".5"/>
    <circle cx="564" cy="482" r="19" fill="#6d7671" opacity=".45"/>
    <circle cx="561" cy="480" r="15" fill="#9aa39d" opacity=".5"/>
    <circle cx="573" cy="488" r="39" fill="#6d7671" opacity=".45"/>
    <circle cx="568" cy="482" r="31" fill="#9aa39d" opacity=".5"/>
    <circle cx="311" cy="286" r="48" fill="#6d7671" opacity=".45"/>
    <circle cx="304" cy="279" r="38" fill="#9aa39d" opacity=".5"/>
    <circle cx="517" cy="455" r="12" fill="#6d7671" opacity=".45"/>
    <circle cx="515" cy="453" r="10" fill="#9aa39d" opacity=".5"/>
    <circle cx="246" cy="597" r="34" fill="#6d7671" opacity=".45"/>
    <circle cx="241" cy="593" r="27" fill="#9aa39d" opacity=".5"/>
    <circle cx="732" cy="432" r="54" fill="#6d7671" opacity=".45"/>
    <circle cx="724" cy="425" r="43" fill="#9aa39d" opacity=".5"/>
    <circle cx="371" cy="217" r="23" fill="#6d7671" opacity=".45"/>
    <circle cx="368" cy="214" r="18" fill="#9aa39d" opacity=".5"/>
    <circle cx="403" cy="390" r="25" fill="#6d7671" opacity=".45"/>
    <circle cx="399" cy="386" r="20" fill="#9aa39d" opacity=".5"/>
    <circle cx="545" cy="476" r="32" fill="#6d7671" opacity=".45"/>
    <circle cx="541" cy="472" r="25" fill="#9aa39d" opacity=".5"/>
    <circle cx="800" cy="512" r="560" fill="#02070c" opacity=".55"/>
  </g>
</svg>
