<svg xmlns="http://www.w3.org/2000/svg" viewBox="0 0 64 160">
  <!-- 발사체(로켓) 마스터. 프레임 64×160 · anchor 하단 중앙 [32, 152](노즐 끝).
       발사 중계·카운트다운 화면용. 화염·연기는 이펙트 레이어(코드/CSS)로 분리 — handoff-m4.md §3.
       파생 런타임: ../../game/rocket.svg (동일 지오메트리). 규칙: 텍스트·필터 금지(librsvg). -->
  <!-- 노즈콘 -->
  <path d="M32 6 Q42 22 42 38 L22 38 Q22 22 32 6 Z" fill="#c8d2c4" stroke="#5c6b5e" stroke-width="2"/>
  <!-- 동체 -->
  <rect x="22" y="38" width="20" height="86" fill="#c8d2c4" stroke="#5c6b5e" stroke-width="2"/>
  <!-- 앰버 밴드 + 심볼 점 -->
  <rect x="22" y="46" width="20" height="8" fill="#ffb000" opacity=".9"/>
  <circle cx="32" cy="70" r="5" fill="none" stroke="#1d7a10" stroke-width="2"/>
  <circle cx="35.5" cy="66.5" r="1.6" fill="#39ff14"/>
  <rect x="22" y="108" width="20" height="4" fill="#8ba08c"/>
  <!-- 패널 라인 -->
  <path d="M22 92h20M32 38v70" stroke="#8ba08c" stroke-width="1" opacity=".6"/>
  <!-- 핀 -->
  <path d="M22 112 L10 138 L22 132 Z" fill="#8ba08c" stroke="#5c6b5e" stroke-width="2"/>
  <path d="M42 112 L54 138 L42 132 Z" fill="#8ba08c" stroke="#5c6b5e" stroke-width="2"/>
  <!-- 엔진부 -->
  <path d="M24 124 H40 L42 134 H22 Z" fill="#414d43" stroke="#5c6b5e" stroke-width="1.5"/>
  <path d="M26 134 H38 L36 148 H28 Z" fill="#2a332c" stroke="#5c6b5e" stroke-width="1.5"/>
  <ellipse cx="32" cy="149" rx="5" ry="2.5" fill="#05080a" stroke="#414d43" stroke-width="1.5"/>
</svg>
